<?xml version="1.0" standalone="no"?>
<!DOCTYPE svg PUBLIC "-//W3C//DTD SVG 20010904//EN"
 "http://www.w3.org/TR/2001/REC-SVG-20010904/DTD/svg10.dtd">
<svg version="1.0" xmlns="http://www.w3.org/2000/svg"
 width="700.000000pt" height="700.000000pt" viewBox="0 0 700.000000 700.000000"
 preserveAspectRatio="xMidYMid meet">
<metadata>
Created by potrace 1.14, written by Peter Selinger 2001-2017
</metadata>
<g transform="translate(0.000000,700.000000) scale(0.100000,-0.100000)"
fill="#000000" stroke="none">
<path d="M5798 4859 c-3 -8 -5 -174 -5 -370 0 -196 -3 -361 -7 -367 -3 -6 -2
-12 4 -14 5 -1 6 -9 1 -16 -4 -7 -15 -10 -24 -6 -9 3 -14 10 -11 15 3 5 0 9
-6 9 -6 0 -22 10 -35 23 -42 38 -50 44 -64 39 -8 -3 -11 0 -7 7 5 7 -1 11 -14
11 -13 0 -19 4 -14 12 4 7 3 8 -5 4 -6 -4 -19 -2 -27 5 -8 6 -17 9 -21 6 -3
-4 -14 -2 -25 4 -50 27 -219 29 -318 4 -14 -4 -31 -7 -37 -7 -7 -1 -13 -5 -13
-10 0 -4 -9 -8 -20 -8 -11 0 -20 -5 -20 -12 0 -6 -3 -8 -6 -5 -4 4 -21 -4 -38
-16 -17 -12 -37 -20 -44 -19 -8 2 -12 -1 -9 -6 7 -10 -29 -43 -37 -35 -3 4 -6
1 -6 -6 0 -7 -18 -30 -40 -51 -23 -22 -41 -42 -40 -45 1 -20 -1 -25 -9 -21 -5
3 -17 -13 -26 -37 -9 -23 -22 -48 -28 -55 -6 -8 -12 -24 -14 -35 -2 -12 -11
-38 -20 -57 -9 -19 -18 -42 -19 -50 -4 -25 -13 -74 -18 -96 -2 -12 -5 -43 -7
-70 -1 -27 -7 -57 -12 -68 -7 -13 -6 -16 3 -11 9 6 9 3 1 -12 -6 -11 -8 -23
-5 -25 10 -11 12 -48 3 -53 -5 -4 -6 -11 -2 -18 3 -6 10 -45 15 -86 12 -113
12 -115 22 -129 4 -7 5 -16 2 -19 -3 -3 -2 -11 3 -17 6 -7 12 -23 15 -38 2
-14 11 -39 20 -56 8 -16 12 -32 9 -36 -4 -3 -1 -6 6 -6 7 0 9 -4 6 -10 -3 -5
-1 -10 4 -10 6 0 11 -7 11 -15 0 -8 5 -15 11 -15 5 0 7 -5 4 -10 -3 -6 1 -13
10 -16 13 -6 14 -8 3 -15 -10 -7 -9 -9 5 -9 9 0 17 -4 17 -8 0 -5 11 -22 25
-38 14 -16 25 -32 25 -36 0 -4 9 -10 20 -13 11 -4 18 -10 15 -15 -3 -4 8 -14
24 -21 16 -7 27 -17 25 -21 -3 -4 0 -9 5 -9 6 -1 17 -2 24 -3 6 -1 11 -7 10
-14 -2 -7 4 -9 14 -5 10 4 14 2 10 -4 -4 -6 0 -14 9 -17 8 -3 13 -2 9 3 -3 5
12 1 32 -9 21 -10 41 -16 45 -13 5 2 8 -1 8 -7 0 -6 4 -9 9 -5 5 3 12 1 15 -3
3 -5 17 -7 32 -4 16 3 29 -1 35 -9 5 -8 9 -9 9 -4 0 6 35 10 86 10 47 0 88 3
91 8 2 4 8 5 13 2 5 -3 12 -1 15 5 5 8 11 7 21 -1 11 -9 16 -7 22 12 5 13 11
18 15 12 8 -12 57 5 57 20 0 5 5 5 10 2 6 -3 10 -1 10 4 0 6 5 11 11 11 6 0
17 7 26 15 8 8 18 13 23 10 4 -3 10 5 13 16 3 12 10 18 16 15 5 -4 12 2 16 13
6 19 33 36 43 26 3 -2 -1 -11 -7 -19 -7 -8 -8 -17 -3 -20 6 -3 9 -24 8 -46 -2
-28 3 -48 16 -62 10 -12 18 -17 18 -11 0 6 42 9 108 9 l107 -1 -2 1070 c-1
589 -2 1078 -2 1087 -1 14 -15 16 -121 15 -68 -1 -121 2 -123 7 -2 6 -6 3 -9
-5z m-250 -848 c18 -5 34 -10 37 -11 2 -1 14 -4 25 -7 11 -3 20 -9 20 -14 0
-5 7 -9 15 -9 9 0 18 -7 21 -15 3 -8 14 -17 25 -20 10 -4 19 -13 19 -21 0 -8
5 -12 10 -9 6 3 10 -1 10 -10 0 -9 4 -14 8 -11 5 3 15 -7 23 -22 8 -15 18 -30
23 -34 6 -4 10 -154 10 -365 1 -328 -1 -361 -17 -390 -24 -42 -95 -119 -107
-116 -6 2 -10 -4 -10 -13 0 -8 -4 -12 -10 -9 -5 3 -10 1 -10 -5 0 -6 -4 -8
-10 -5 -5 3 -10 1 -10 -4 0 -6 -3 -10 -7 -9 -8 1 -37 -8 -63 -21 -15 -7 -202
-7 -230 1 -62 17 -207 128 -195 149 3 4 2 9 -3 11 -14 5 -52 78 -52 99 0 10
-5 19 -11 19 -6 0 -9 7 -6 15 4 8 2 17 -3 20 -5 3 -9 13 -8 23 0 9 -4 31 -10
47 -5 17 -8 39 -6 50 2 10 -2 25 -8 32 -7 9 -7 13 0 13 6 0 10 9 9 20 -1 11
-4 20 -8 20 -4 0 -5 24 -2 53 3 28 6 77 7 107 0 30 5 58 11 62 5 4 8 21 7 39
-3 22 0 29 8 24 9 -5 10 -1 5 14 -4 14 -2 21 6 21 7 0 10 3 6 6 -8 8 13 64 25
64 5 0 6 4 3 10 -7 11 42 77 90 123 47 45 107 74 168 81 15 2 31 6 34 9 8 9
123 0 161 -12z"/>
<path d="M2678 4737 c-21 -8 -78 -85 -70 -94 1 -2 1 -5 1 -8 -7 -26 -2 -54 13
-76 9 -14 14 -30 10 -34 -4 -5 -1 -5 6 -1 6 4 12 3 12 -2 0 -22 88 -43 130
-31 19 5 60 45 60 59 0 5 4 10 9 10 6 0 8 10 6 22 -3 12 0 27 6 34 7 9 7 19 0
32 -6 11 -8 22 -5 24 2 3 -9 20 -26 38 -16 18 -30 29 -30 25 0 -4 -6 -3 -12 2
-18 13 -77 13 -110 0z"/>
<path d="M4300 4639 c0 -5 -4 -8 -9 -5 -5 3 -8 0 -8 -7 1 -24 -16 -77 -25 -77
-5 0 -7 -3 -5 -7 3 -5 0 -19 -6 -33 -5 -14 -11 -31 -13 -38 -1 -8 -6 -21 -10
-30 -4 -9 -8 -19 -9 -22 0 -3 -11 -36 -24 -75 -27 -82 -44 -100 -75 -83 -11 7
-27 11 -33 10 -7 -2 -13 1 -13 6 0 5 -6 9 -12 10 -29 2 -62 12 -85 28 -18 11
-23 12 -17 3 6 -11 5 -12 -7 -2 -9 7 -24 14 -35 16 -10 2 -32 10 -49 16 -32
14 -114 42 -130 46 -5 1 -18 5 -27 8 -10 4 -26 10 -35 14 -10 3 -25 7 -34 9
-9 2 -37 13 -63 24 -26 11 -51 18 -56 15 -4 -3 -10 2 -14 10 -3 8 -12 12 -21
9 -8 -3 -15 -2 -15 4 0 6 -9 8 -20 5 -11 -3 -20 0 -20 6 0 6 -10 11 -23 11
-13 0 -27 4 -32 9 -6 4 -31 14 -58 21 -26 7 -50 16 -53 21 -2 4 -11 6 -19 2
-8 -3 -15 0 -15 6 0 7 -6 11 -12 10 -12 -2 -20 0 -65 18 -47 18 -64 -1 -88
-97 -1 -3 -5 -14 -9 -25 -29 -75 -34 -93 -29 -99 4 -3 1 -6 -5 -6 -7 0 -12 -8
-12 -18 0 -10 -3 -22 -7 -26 -5 -4 -8 -11 -9 -14 -2 -27 -17 -72 -24 -72 -4 0
-7 -6 -7 -12 2 -23 -27 -108 -36 -108 -4 0 -6 -4 -3 -9 3 -5 -2 -26 -11 -47
-21 -50 -27 -84 -13 -85 20 -3 25 -4 38 -12 6 -5 12 -6 12 -2 0 3 10 0 23 -7
12 -7 27 -11 34 -10 6 1 14 -2 18 -8 15 -25 42 -9 56 33 8 23 13 45 11 50 -1
4 3 7 10 7 6 0 8 3 5 6 -3 4 -2 15 4 26 6 11 13 32 15 46 3 15 9 31 13 37 9
11 25 66 23 78 -1 4 2 7 7 7 5 0 12 18 16 40 4 22 11 40 16 40 5 0 9 7 9 15 0
8 9 15 20 15 11 0 20 -5 20 -11 0 -5 4 -8 9 -5 5 3 26 -2 47 -11 22 -9 45 -16
52 -14 6 1 12 -3 12 -9 0 -5 3 -9 8 -8 12 2 66 -14 80 -25 6 -5 12 -7 12 -3 0
4 13 0 30 -9 16 -8 38 -15 50 -15 11 0 20 -5 20 -10 0 -6 6 -10 13 -9 18 3 67
-12 67 -21 0 -5 11 -7 25 -6 15 2 22 -1 18 -7 -4 -6 0 -8 9 -4 9 3 25 -1 37
-9 11 -8 21 -12 21 -8 0 3 7 1 15 -6 8 -7 22 -10 30 -6 8 3 15 2 15 -3 0 -10
38 -24 58 -22 6 1 12 -3 12 -10 0 -6 8 -9 20 -6 11 3 20 1 20 -4 0 -5 8 -9 18
-9 10 0 22 -3 26 -7 4 -5 12 -9 17 -9 5 -1 10 -2 12 -3 1 -2 13 -5 27 -7 13
-3 29 -9 35 -15 11 -11 15 -59 4 -59 -3 0 -10 -15 -14 -32 -4 -18 -9 -35 -10
-38 -1 -3 -4 -12 -8 -20 -3 -8 -16 -44 -28 -80 -13 -36 -25 -67 -28 -70 -3 -3
-7 -14 -9 -25 -3 -23 -5 -31 -19 -65 -14 -33 -6 -50 23 -50 13 0 24 -4 24 -8
0 -7 16 -11 58 -14 6 -1 12 -5 12 -10 0 -5 12 -8 27 -6 25 3 30 13 72 138 25
74 48 137 51 140 3 3 6 16 8 30 1 13 6 27 10 30 4 3 9 14 10 25 2 11 9 23 15
27 8 5 7 8 -3 8 -9 0 -11 3 -5 8 9 6 51 113 60 152 2 8 4 15 5 15 1 0 3 7 5
15 2 8 10 34 18 57 9 22 13 44 10 47 -4 3 -2 6 3 6 5 0 16 21 23 48 8 26 17
52 21 57 6 10 32 95 32 105 0 3 5 14 11 25 6 11 12 25 14 30 1 6 5 19 8 31 5
17 -1 23 -32 36 -62 26 -77 31 -90 29 -7 -1 -13 3 -13 9 0 5 -7 10 -15 10 -8
0 -15 -5 -15 -11z"/>
<path d="M679 4215 c-5 -1 -5 -45 0 -45 4 0 7 -10 8 -22 2 -43 12 -91 20 -97
4 -3 8 -23 8 -43 -1 -21 2 -38 5 -38 4 0 7 -15 8 -32 0 -18 5 -34 10 -36 5 -1
7 -14 4 -27 -2 -14 0 -25 5 -25 5 0 8 -12 7 -27 -1 -16 2 -32 6 -38 4 -5 10
-26 14 -45 3 -19 8 -48 12 -65 3 -16 6 -39 8 -50 1 -11 5 -25 9 -32 4 -7 8
-28 9 -48 1 -19 4 -35 7 -35 4 0 7 -10 8 -22 2 -29 23 -138 30 -158 3 -8 7
-22 8 -30 1 -8 6 -31 10 -50 5 -19 8 -41 6 -47 -1 -7 2 -13 6 -13 4 0 9 -12
10 -27 5 -58 11 -91 20 -109 5 -11 8 -29 7 -41 0 -13 3 -23 8 -23 5 0 8 -6 6
-12 -1 -7 2 -31 7 -53 4 -22 9 -44 10 -50 1 -5 3 -12 4 -15 2 -3 5 -16 6 -30
9 -61 18 -95 27 -101 14 -9 12 -20 -4 -30 -11 -8 78 -13 176 -11 38 1 34 -7
51 89 4 24 11 41 14 38 4 -2 6 9 5 26 -1 16 2 29 7 29 5 0 8 3 7 8 -1 4 4 34
12 67 7 33 13 66 13 73 0 6 4 12 8 12 4 0 8 8 8 18 0 9 5 37 11 62 7 25 13 50
14 55 2 6 6 17 9 25 3 8 8 29 11 45 4 17 8 39 11 50 3 11 7 29 10 40 2 11 16
65 31 120 15 55 28 107 29 115 1 8 5 22 8 30 6 17 12 52 31 180 10 65 16 81
28 74 7 -4 6 -9 -2 -14 -9 -6 -9 -12 0 -30 7 -13 14 -39 15 -59 2 -20 8 -58
14 -86 6 -27 13 -60 15 -73 3 -12 15 -57 26 -100 12 -42 23 -86 25 -97 1 -11
7 -31 13 -45 5 -14 8 -29 5 -33 -3 -4 0 -14 6 -21 6 -7 11 -27 13 -44 1 -18 5
-32 8 -32 3 0 7 -8 8 -17 1 -10 3 -25 5 -33 2 -8 7 -32 12 -53 4 -20 11 -40
16 -43 5 -3 7 -9 4 -13 -2 -5 4 -38 15 -75 10 -36 16 -66 13 -66 -3 0 0 -7 7
-15 7 -8 10 -21 7 -29 -3 -7 -1 -18 3 -22 5 -5 11 -21 14 -34 2 -14 5 -26 7
-27 1 -2 2 -11 4 -20 1 -10 5 -26 9 -35 4 -9 5 -22 1 -28 -4 -6 7 -10 29 -11
121 -2 164 -1 173 4 6 4 14 24 18 44 5 21 10 45 12 53 2 8 6 33 9 55 3 22 9
45 13 50 4 6 7 22 6 38 0 15 3 27 7 27 4 0 7 3 6 8 -3 16 15 112 21 112 4 0 7
10 7 23 0 12 5 47 12 77 7 30 15 66 18 80 3 14 8 41 11 60 3 19 8 36 12 38 4
1 6 16 5 32 -1 17 2 30 6 30 5 0 7 7 6 16 -1 9 4 39 12 68 8 28 15 62 16 76 1
14 7 35 14 48 8 14 9 22 2 22 -7 0 -8 6 0 19 5 11 10 31 10 45 0 14 4 26 9 26
6 0 8 10 6 21 -3 12 -1 27 3 33 3 6 8 20 9 31 1 11 6 36 10 55 3 19 7 37 7 40
1 3 4 10 7 15 3 6 5 17 4 25 -1 8 4 31 11 50 6 19 10 43 8 53 -1 9 2 17 6 17
5 0 7 9 5 20 -2 11 0 22 4 24 4 3 8 25 9 49 l3 43 -103 -1 c-110 -1 -128 -5
-123 -33 1 -9 -2 -25 -7 -34 -6 -13 -5 -18 4 -18 9 0 10 -3 2 -8 -6 -4 -11
-14 -12 -22 -1 -16 -9 -55 -12 -55 -1 0 -3 -18 -6 -40 -9 -93 -14 -119 -21
-124 -4 -3 -8 -24 -7 -46 0 -22 -4 -46 -9 -53 -5 -7 -7 -15 -4 -18 3 -3 1 -18
-4 -32 -5 -14 -10 -40 -11 -59 -1 -18 -4 -33 -7 -33 -4 0 -6 -18 -6 -40 0 -22
-2 -40 -5 -40 -3 0 -7 -19 -9 -42 -1 -23 -5 -46 -8 -51 -6 -9 -11 -39 -18
-107 -2 -19 -4 -35 -6 -35 -1 0 -3 -10 -5 -22 -2 -13 -6 -33 -8 -45 -2 -13 -5
-23 -6 -23 -1 0 -4 -16 -5 -35 -8 -82 -23 -152 -35 -163 -10 -10 -12 -8 -7 11
3 12 1 22 -3 22 -5 0 -9 8 -9 18 0 9 -2 33 -5 52 -3 19 -7 47 -8 63 -1 15 -6
27 -11 27 -4 0 -6 13 -4 29 3 19 0 31 -8 35 -8 3 -11 15 -7 32 3 16 1 25 -5
21 -5 -3 -9 4 -8 16 1 12 -2 28 -7 34 -6 7 -8 20 -4 28 3 8 1 15 -5 15 -6 0
-7 5 -4 10 3 6 2 10 -3 10 -5 0 -8 11 -7 25 2 14 0 27 -5 30 -5 3 -7 16 -5 30
1 14 -1 25 -5 25 -4 0 -11 19 -15 43 -8 43 -11 53 -15 62 -3 6 -3 5 -20 80 -8
33 -15 65 -16 70 0 6 -3 17 -7 25 -5 15 -17 62 -23 90 -1 8 -8 33 -14 55 -6
22 -13 49 -15 60 -3 11 -8 31 -11 45 -3 14 -8 40 -11 58 -3 17 -9 32 -14 32
-5 0 -9 6 -9 13 0 9 -22 12 -80 13 -82 0 -84 -1 -83 -43 1 -7 -4 -13 -10 -13
-6 0 -8 -3 -5 -6 4 -3 2 -20 -3 -37 -12 -37 -19 -64 -24 -92 -2 -11 -9 -38
-15 -60 -19 -71 -21 -80 -27 -110 -3 -16 -9 -37 -14 -46 -4 -9 -6 -19 -2 -22
3 -4 1 -12 -4 -19 -6 -7 -9 -23 -8 -35 1 -13 -2 -23 -6 -23 -6 0 -13 -24 -23
-85 -1 -11 -6 -27 -9 -35 -10 -28 -20 -75 -18 -87 1 -7 -2 -13 -7 -13 -5 0 -8
-10 -8 -22 1 -13 -1 -28 -5 -33 -5 -6 -11 -26 -14 -45 -9 -46 -13 -64 -15 -67
-2 -2 -3 -6 -4 -10 -4 -16 -17 -69 -22 -93 -3 -14 -6 -35 -7 -47 -1 -13 -4
-23 -8 -23 -4 0 -5 -10 -1 -22 3 -13 1 -19 -5 -15 -6 4 -8 -3 -5 -18 3 -18 0
-25 -12 -25 -11 0 -16 8 -15 28 1 27 -7 86 -17 132 -3 14 -6 42 -7 63 0 20 -4
37 -8 37 -4 0 -9 19 -12 43 -3 23 -8 57 -11 75 -3 17 -8 44 -11 60 -2 15 -10
52 -15 82 -11 52 -15 81 -24 140 -2 14 -6 36 -10 50 -3 14 -8 36 -10 50 -3 14
-7 35 -10 47 -2 11 -8 43 -12 70 -9 54 -11 62 -14 66 -1 1 -3 18 -5 37 -1 19
-3 35 -4 35 -3 0 -7 18 -15 66 -10 67 -7 65 -121 65 -58 -1 -106 -1 -106 -1z"/>
<path d="M2779 3483 c-1 -5 -1 -11 0 -15 0 -5 -7 -8 -16 -8 -11 0 -14 -3 -8
-8 14 -9 13 -31 -1 -40 -6 -4 -11 -14 -12 -22 -2 -29 -8 -50 -19 -61 -6 -6 -9
-18 -6 -25 3 -8 0 -14 -6 -14 -6 0 -8 -7 -5 -15 4 -8 1 -15 -5 -15 -6 0 -11
-11 -11 -24 0 -14 -5 -28 -10 -31 -6 -4 -8 -11 -5 -16 4 -5 1 -9 -5 -9 -6 0
-8 -4 -5 -10 3 -5 -1 -23 -10 -40 -8 -16 -13 -30 -9 -30 4 0 1 -7 -6 -15 -7
-8 -9 -15 -4 -15 4 0 3 -5 -4 -12 -7 -7 -12 -23 -12 -36 0 -13 -4 -21 -9 -18
-5 4 -7 -3 -4 -14 3 -12 0 -20 -8 -20 -7 0 -9 -3 -6 -7 4 -3 2 -12 -4 -20 -6
-7 -9 -13 -6 -13 3 0 0 -15 -8 -34 -8 -18 -11 -36 -8 -40 4 -3 1 -6 -6 -6 -7
0 -9 -4 -6 -10 3 -5 2 -10 -4 -10 -5 0 -8 -9 -6 -20 2 -11 0 -20 -4 -20 -5 0
-12 -16 -15 -35 -4 -19 -11 -35 -17 -35 -6 0 -8 -4 -4 -10 3 -5 -1 -25 -9 -44
-8 -19 -12 -37 -8 -40 3 -3 -1 -6 -8 -6 -7 0 -10 -3 -7 -7 4 -3 2 -12 -4 -20
-6 -7 -9 -13 -6 -13 3 0 -3 -17 -13 -37 -12 -24 -15 -40 -8 -44 6 -4 5 -8 -3
-11 -8 -3 -10 -11 -6 -22 4 -11 13 -16 22 -12 8 3 17 1 20 -5 4 -5 11 -7 16
-4 5 4 9 1 9 -5 0 -6 5 -8 10 -5 6 3 10 2 10 -2 0 -5 8 -9 18 -10 9 -1 30 -5
46 -9 21 -5 27 -4 22 5 -4 6 -3 11 3 11 6 0 8 7 5 15 -4 8 -1 15 5 15 6 0 11
9 11 20 0 12 7 34 15 49 8 16 16 40 19 54 2 15 8 32 13 39 9 15 14 35 16 61 1
9 8 17 17 17 13 0 13 1 0 10 -11 7 -11 10 -2 10 7 0 10 5 7 10 -3 6 -2 10 2
10 5 0 10 12 11 27 2 30 23 48 34 30 6 -9 8 -8 8 3 1 12 3 12 11 -2 5 -9 16
-15 23 -12 8 3 17 1 21 -5 3 -6 15 -11 26 -11 10 0 19 -4 19 -8 0 -9 7 -10 55
-13 13 -1 22 -5 19 -10 -3 -5 6 -9 20 -9 14 0 26 -5 26 -11 0 -6 6 -9 14 -6 8
3 17 3 21 -1 4 -4 10 -7 13 -8 4 0 16 -4 27 -8 52 -20 62 -23 90 -29 8 -2 18
-6 21 -10 4 -4 18 -7 31 -7 17 0 22 -4 17 -12 -4 -7 -4 -10 1 -6 4 4 23 1 41
-7 19 -8 34 -12 34 -9 0 3 10 -1 23 -8 12 -6 31 -13 42 -15 11 -2 22 -8 23
-13 2 -6 8 -7 13 -4 6 3 15 1 22 -4 7 -6 15 -11 19 -11 42 -7 68 -15 68 -23 0
-6 6 -8 14 -5 7 3 26 -1 41 -9 15 -8 36 -14 46 -14 11 0 19 -4 19 -8 0 -4 12
-9 28 -10 15 -1 29 -7 30 -12 2 -6 8 -8 13 -4 5 3 9 0 9 -6 0 -6 5 -8 10 -5 6
4 17 1 25 -5 8 -7 15 -9 15 -5 0 4 6 3 13 -3 22 -19 35 1 40 61 1 9 4 17 8 17
8 0 19 25 25 60 3 13 10 30 16 37 6 7 7 13 3 13 -4 0 -2 6 4 13 6 8 8 16 5 20
-3 3 2 17 11 31 10 14 14 26 10 26 -4 0 -2 7 5 15 7 8 9 15 5 15 -4 0 -2 7 5
15 7 8 9 15 6 15 -4 0 -2 9 4 21 7 11 14 33 16 47 3 15 11 30 17 34 7 4 8 8 3
8 -5 0 -3 6 3 14 6 7 12 25 13 40 1 14 6 26 10 26 4 0 8 9 8 19 0 11 5 23 11
27 8 4 7 9 -2 15 -8 5 -9 9 -3 9 6 0 11 7 11 15 0 8 -5 14 -11 13 -6 0 -20 2
-31 6 -11 4 -32 12 -47 18 -15 6 -28 9 -30 7 -2 -1 -13 3 -24 9 -25 13 -44 -2
-47 -37 -1 -11 -6 -22 -13 -25 -7 -3 -9 -16 -6 -32 3 -19 1 -25 -7 -20 -8 5
-10 0 -7 -19 4 -21 2 -25 -10 -21 -11 4 -12 2 -4 -13 7 -14 6 -20 -5 -25 -8
-3 -12 -12 -9 -21 4 -8 1 -15 -7 -15 -7 0 -9 -3 -6 -7 4 -3 1 -13 -6 -21 -9
-13 -9 -14 0 -8 9 5 11 2 7 -8 -3 -9 -9 -16 -13 -16 -7 0 -9 -7 -13 -50 -1
-11 -6 -20 -10 -20 -4 0 -8 -9 -8 -19 0 -20 -23 -35 -35 -23 -4 4 -10 7 -13 8
-4 0 -25 5 -46 12 -22 6 -43 9 -48 6 -5 -3 -7 0 -6 6 2 7 -5 14 -14 16 -10 2
-24 6 -30 7 -7 2 -26 7 -43 12 -16 4 -35 11 -40 16 -6 4 -23 10 -37 13 -15 2
-42 11 -60 19 -18 8 -52 20 -75 27 -24 7 -43 17 -43 21 0 4 -10 5 -22 1 -13
-3 -19 -1 -15 6 4 6 0 9 -10 7 -10 -1 -24 2 -30 8 -7 5 -13 6 -13 2 0 -5 -10
0 -22 11 -13 12 -18 13 -13 4 5 -9 -1 -7 -15 5 -14 12 -20 14 -15 5 8 -13 6
-13 -8 -2 -9 8 -21 11 -27 7 -5 -3 -10 -1 -10 4 0 6 -9 11 -20 11 -11 0 -20 4
-20 8 0 4 -12 9 -27 10 -15 1 -29 5 -32 10 -6 7 -28 14 -48 15 -7 0 -13 5 -13
10 0 6 -3 7 -7 4 -3 -4 -12 -2 -18 3 -9 8 -9 19 -1 45 6 19 15 35 19 35 5 0 6
4 2 9 -3 5 -1 13 5 16 8 5 7 11 -1 21 -10 12 -10 15 2 12 8 -2 15 4 15 12 3
41 17 79 27 73 6 -4 8 0 4 10 -3 9 -2 19 4 23 6 3 8 12 5 20 -3 8 0 14 6 14 6
0 8 3 5 7 -4 3 -2 11 3 18 5 6 12 22 14 36 3 13 5 25 7 27 1 1 2 5 3 10 1 4 5
13 9 20 5 7 4 12 -3 12 -6 0 -8 5 -4 12 4 6 3 8 -4 4 -6 -3 -14 -2 -17 4 -5 8
-11 8 -20 0 -10 -9 -16 -6 -25 10 -9 17 -14 19 -26 9 -11 -9 -14 -9 -14 0 0 7
-4 9 -10 6 -5 -3 -10 -1 -10 4 0 12 -39 15 -41 4z"/>
<path d="M4120 2560 c-8 -5 -17 -7 -20 -6 -3 2 -14 -6 -25 -17 -12 -11 -14
-17 -5 -13 9 5 8 2 -2 -7 -10 -8 -18 -22 -18 -31 0 -9 -4 -16 -8 -16 -5 0 -8
-18 -8 -40 0 -22 4 -40 9 -40 5 0 6 -7 3 -16 -3 -8 -2 -12 3 -9 5 3 12 -4 16
-15 3 -11 15 -20 26 -20 10 0 19 -5 19 -10 0 -6 6 -10 13 -9 27 3 38 -1 31
-13 -6 -10 -5 -10 8 -1 8 7 18 10 21 6 4 -3 7 -1 7 5 0 6 9 9 20 7 11 -2 18
-1 16 4 -3 4 8 15 25 25 16 9 27 21 24 26 -3 4 2 24 10 44 12 28 12 36 3 36
-9 0 -8 3 2 10 9 6 10 10 3 10 -6 0 -10 9 -8 20 2 11 0 18 -6 15 -5 -4 -9 0
-9 7 0 7 -14 19 -30 26 -17 8 -28 17 -26 20 6 11 -77 13 -94 2z"/>
</g>
</svg>
